<?xml version="1.0" encoding="utf-8"?>
<!-- Generator: Adobe Illustrator 16.0.0, SVG Export Plug-In . SVG Version: 6.00 Build 0)  -->
<!DOCTYPE svg PUBLIC "-//W3C//DTD SVG 1.1//EN" "http://www.w3.org/Graphics/SVG/1.1/DTD/svg11.dtd">
<svg version="1.1" id="Layer_1" xmlns="http://www.w3.org/2000/svg" xmlns:xlink="http://www.w3.org/1999/xlink" x="0px" y="0px"
	 width="5204.878px" height="1073.817px" viewBox="0 0 5204.878 1073.817" enable-background="new 0 0 5204.878 1073.817"
	 xml:space="preserve">
<path fill-rule="evenodd" clip-rule="evenodd" fill="#EC028B" stroke="#EC028B" stroke-width="3" stroke-miterlimit="10" d="
	M2322.673,70.363c22.292,6.389,42.916,16.122,61.313,30.388c31.376,24.329,55.81,53.805,68.122,92.18
	c5.034,15.69,8.031,31.78,9.344,48.256c0.898,11.287-1.361,22.538,0.211,34.676c5.486-3.587,8.663-8.659,12.469-12.894
	c16.517-18.385,34.868-34.696,54.383-49.787c31.866-24.646,66.587-43.963,105.082-56.114c17.373-5.484,35.278-8.591,53.307-11.282
	c20.56-3.07,41.23-4.511,61.924-4.88c17.273-0.308,34.598,1.188,51.689,3.93c21.601,3.467,42.622,9.047,63.06,17.186
	c19.769,7.873,37.769,18.691,55.28,30.425c17.919,12.009,34.737,25.461,50.171,40.604c24.524,24.063,44.351,51.454,59.472,82.333
	c9.162,18.709,17.141,37.851,23.572,58.402c3.203-4.477,2.813-9.284,3.016-13.777c1.414-31.118,5.174-62.007,9.185-92.857
	c0.836-6.418,3.62-12.557,5.073-18.925c2.678-11.742,4.645-23.658,7.619-35.319c4.178-16.372,13.321-29.902,25.76-41.19
	c25.453-23.101,56.085-36.622,88.314-46.885c22.413-7.135,45.553-10.795,68.888-13.818c27.443-3.556,54.999-4.899,82.436-3.149
	c18.714,1.193,37.617,2.037,56.218,6.27c14.485,3.296,29.318,5.188,43.73,9.09c31.095,8.421,59.918,21.512,86.458,39.964
	c18.747,13.035,35.908,27.546,49.439,45.998c14.741,20.099,24.604,42.397,29.035,67.007c2.782,15.442,3.379,30.96,3.264,46.67
	c-0.127,17.402-1.948,34.536-4.36,51.684c-3.613,25.686-10.015,50.714-19.344,74.854c-9.256,23.954-21.31,46.537-34.965,68.376
	c-25.216,40.327-59.146,70.866-100.631,93.644c-40.626,22.305-83.871,36.979-129.305,45.335c-21.299,3.917-42.794,6.637-64.4,8.49
	c-16.536,1.418-33.016,3.499-49.523,5.265c-4.608,0.493-7.301,1.269-6.501,7.641c3.626,28.882,7.003,57.819,9.407,86.826
	c2.065,24.908,3.561,49.901-1.899,74.759c-7.321,33.326-20.952,64.228-35.376,94.857c-9.202,19.539-20.444,37.861-34.291,54.447
	c-10.392,12.449-22.414,22.993-38.309,28.009c-20.718,6.537-40.898,3.463-60.167-5.044c-17.278-7.627-30.812-20.363-38.612-37.545
	c-10.265-22.604-18.447-45.96-16.395-71.628c1.625-20.305,3.41-40.561,6.284-60.746c2.116-14.867,3.354-29.865,4.55-44.864
	c1.516-19.02,2.945-38.23,6.918-56.823c5.593-26.175,8.798-52.635,13.014-78.98c1.373-8.584,2.941-17.081,2.504-26.219
	c-3.59,6.597-7.095,13.241-10.784,19.781c-19.87,35.226-42.327,68.429-73.356,95.09c-40.172,34.515-82.407,66.138-130.061,89.608
	c-34.825,17.152-71.698,28.371-110.333,33.62c-16.97,2.306-34.036,3.21-50.979,2.221c-16.313-0.953-32.619-2.126-48.889-5.698
	c-21.518-4.723-42.461-10.629-62.434-19.639c-30.068-13.565-58.299-30.188-84.433-50.581
	c-37.159-28.999-64.455-65.112-81.874-108.749c-8.957-22.44-16.491-45.349-18.783-69.594c-2.072-21.924-4.571-43.834-3.914-65.918
	c0.617-20.765,2.712-41.441,6.739-61.771c3.339-16.847,6.646-33.818,13.045-49.924c1.425-3.585,2.767-7.211,3.923-10.889
	c0.28-0.894,0.013-2.435-0.616-3.021c-0.833-0.777-2.085-0.056-2.974,0.645c-2.251,1.771-4.549,3.49-6.694,5.382
	c-28.688,25.301-62.253,41.351-98.183,53.67c-22.157,7.599-44.66,12.94-67.773,15.122c-23.463,2.217-47.02,3.953-70.63,4.263
	c-7.188,0.093-7.738,1.076-7.389,8.531c0.578,12.356,0.819,24.728,1.202,37.089c0.701,8.188-1.303,16.504,1.154,24.611
	c0.494,23.312-1.954,46.448-3.696,69.649c-1.146,15.264-0.861,30.637-0.523,46.017c0.42,19.071,0.188,38.219-4.17,57.245
	c-4.379,19.117-13.448,35.378-24.748,50.829c-11.959,16.351-34.04,20.457-53.153,11.044c-13.357-6.578-26.039-14.192-37.024-24.789
	c-11.922-11.5-17.468-26.064-23.646-40.638c-8.864-20.917-11.416-43.144-14.432-65.302c-4.142-30.42-11.165-60.299-16.785-90.438
	c-4.413-23.673-7.26-47.639-10.875-71.463c-3.156-20.799-6.39-41.587-9.633-62.373c-3.41-21.854-6.946-43.687-10.286-65.55
	c-3.503-22.924-7.415-45.807-10.031-68.836c-1.571-13.823-3.062-27.712-3.476-41.695c-0.78-26.405-2.233-52.787-3.318-79.183
	c-0.792-19.267-3.843-38.632-1.531-57.786c3.448-28.566,13.505-53.223,44.457-63.178c21.905-7.046,42.765-17.368,65.229-22.599
	c28.389-6.611,57.192-10.55,86.46-11.307c12.418-0.322,24.838-1.216,37.265-0.806c13.325,0.44,26.688,2.316,39.943,1.68
	c15.529-0.747,30.68,2.64,46.133,2.258c18.778-0.463,37.152,4.008,55.755,5.848c1.53,0.151,3.059,0.338,4.589,0.509
	c8.606,1.932,17.141,4.318,25.835,5.678C2303.326,65.414,2312.627,69.541,2322.673,70.363z M2764.445,286.13
	c-34.895,0.526-68.351,7.769-100.374,21.646c-28.806,12.481-56.449,27.078-79.953,48.177
	c-27.583,24.763-47.693,54.965-62.021,89.087c-8.958,21.335-13.672,43.758-17.379,66.468c-1.313,8.05-1.332,16.141-1.859,24.227
	c-1.006,15.449-0.537,30.694,1.4,46.045c1.5,11.88,5.467,23.109,7.676,34.753c6.272,33.064,18.447,63.014,42.309,87.729
	c24.716,25.602,53.213,41.873,89.892,40.787c16.954-0.501,33.879-1.692,50.353-5.604c51.766-12.285,93.926-41.083,131.221-77.854
	c23.088-22.766,40.52-49.728,56.891-77.475c15.875-26.907,27.469-55.574,32.694-86.299c3.745-22.012,3.509-44.454,0.365-66.71
	c-5.254-37.199-16.264-72.082-41.223-101.231c-13.822-16.144-30.505-28.479-50.485-35.915
	C2804.77,286.821,2784.703,285.623,2764.445,286.13z M3321.021,257.352c-3.961,0-7.999-0.512-11.871,0.079
	c-39.046,5.963-77.757,12.315-112.725,33.186c-14.589,8.708-22.957,18.926-23.749,35.707c-0.979,20.742-0.777,41.465-0.674,62.223
	c0.096,19.313-0.548,38.606,0.285,57.956c0.834,19.393-0.554,38.838,0.138,58.284c0.476,13.414-0.997,26.895-0.53,40.31
	c0.356,10.27,3.994,19.604,13.133,25.846c8.482,5.794,18.021,4.346,26.629,2.239c24.798-6.066,50.041-9.524,75.057-14.272
	c20.152-3.825,40.271-8.424,59.02-16.372c20.209-8.568,40.58-17.016,60.139-27.09c9.167-4.722,19.061-8.175,27.414-14.327
	c16.201-11.936,28.721-27.33,38.462-44.707c8.456-15.086,15.421-30.894,18.383-48.299c2.409-14.157,0.695-28.013-1.385-41.842
	c-1.394-9.273-2.123-18.762-6.462-27.487c-10.671-21.462-29.13-35.674-47.307-49.699c-12.3-9.49-27.685-13.781-42.459-18.823
	C3369.277,262.333,3345.542,257.742,3321.021,257.352z M2099.459,425.604c3.28-0.353,6.579-0.575,9.836-1.077
	c19.322-2.971,38.428-7.062,57.578-10.968c30.848-6.292,60.201-16.297,87.472-32.204c28.793-16.797,53.09-38.272,70.463-67.033
	c4.544-7.522,9.236-15.364,10.146-24.036c2.156-20.526-5.852-38.065-19.45-52.807c-13.466-14.599-31.11-23.482-48.687-32.031
	c-15.182-7.384-31.152-13.018-47.603-16.78c-11.738-2.685-23.994-3.16-35.679-6.009c-20.337-4.96-40.826-6.334-61.363-3.373
	c-23.233,3.351-44.266,13.657-65.542,23.011c-20.991,9.229-24.294,22.388-20.347,43.079c3.561,18.671,7.581,37.374,12.047,55.928
	c9.438,39.211,28.385,75.288,37.349,114.668C2087.938,425.896,2088.816,425.695,2099.459,425.604z"/>
<path fill-rule="evenodd" clip-rule="evenodd" fill="#FE671F" stroke="#FE671F" stroke-width="2" stroke-miterlimit="10" d="
	M166.168,512.772c1.341,21.108,3.627,42.106,6.126,63.122c2.59,21.781,9.649,42.652,11.986,64.299
	c2.01,18.614-0.977,36.929-10.806,53.596c-7.746,13.132-17.264,24.466-30.712,32.003c-10.435,5.848-21.727,7.665-33.583,6.415
	c-17.487-1.843-31.222-10.406-40.065-25.167c-4.564-7.619-11.393-13.406-14.892-21.912c-4.104-9.977-4.867-20.342-5.769-30.633
	c-1.805-20.575-3.116-41.227-3.66-61.871c-0.464-17.663-1.51-35.313-2.288-52.943c-0.656-14.871-0.449-29.873-2.637-44.729
	c-0.563-3.826-0.814-7.962-0.887-11.984c-0.514-28.297-3.119-56.47-5.19-84.673c-1.357-18.477-2.232-37.009-4.25-55.413
	c-2.325-21.208-3.81-42.5-7.277-63.617c-1.825-11.103-2.456-22.483-4.154-33.678c-2.53-16.687-5.071-33.372-7.657-50.049
	c-0.883-5.69,0.036-10.893,1.478-16.598c2.49-9.845,6.152-19.298,8.656-29.118c1.303-5.114,4.045-9.976,6.743-14.598
	c9.121-15.626,22.543-27.23,36.719-37.983c33.276-25.241,70.554-42.616,109.966-55.856c23.187-7.789,46.946-13.327,71.113-16.202
	c15.996-1.902,32.139-3.247,48.416-3.509c19.154-0.31,38.031,1.45,56.558,4.857c16.363,3.01,32.559,7.966,47.807,15.383
	c22.286,10.841,42.097,24.796,59.478,42.604c21.508,22.037,35.764,48.125,44.575,77.189c3.336,11.003,4.515,22.695,5.66,34.324
	c0.935,9.482,1.945,19.05,1.342,28.378c-0.714,11.022-1.103,22.152-3.4,33.144c-3.24,15.492-6.464,30.857-11.464,45.98
	c-7.24,21.898-17.782,41.971-30.917,60.594c-17.133,24.288-38.688,44.134-63.073,61.354c-20.562,14.52-42.037,27.308-65.007,37.096
	c-19.084,8.133-39.017,14.34-59.604,18.429c-16.058,3.19-32.287,4.212-48.432,5.658c-9.873,0.884-20.114,0.38-30.228-0.33
	c-8.191-0.575-16.636,1.251-24.851,2.684c-5.581,0.975-5.176,6.454-5.696,10.526C165.739,503.887,166.168,508.357,166.168,512.772z
	 M257.234,190.468c-8.363,0-15.082-0.723-21.593,0.128c-24.629,3.219-48.657,8.824-71.263,19.589
	c-6.574,3.13-12.496,7.208-17.531,12.271c-7.056,7.098-4.056,15.913-2.295,23.955c3.754,17.159,8.552,34.091,12.247,51.26
	c4.606,21.412,8.452,42.991,15.867,63.694c1.854,5.178,11.935,11.344,17.094,10.492c16.241-2.68,32.278-5.856,47.691-12.129
	c16.546-6.734,33.457-12.64,49.043-21.46c15.396-8.713,29.414-18.991,39.746-33.975c12.32-17.865,18.864-36.556,15.09-58.654
	c-3.962-23.194-17.347-38.314-38.146-47.189C288.09,192.012,272.042,189.208,257.234,190.468z"/>
<path fill-rule="evenodd" clip-rule="evenodd" fill="#41B5E5" stroke="#41B5E5" stroke-width="2" stroke-miterlimit="10" d="
	M1027.503,356.568c-0.413,13.748-3.495,27.085-5.967,40.554c-4.795,26.122-12.956,51.264-21.033,76.458
	c-5.322,16.598-9.551,33.616-15.97,49.771c-5.669,14.272-13.854,27.529-20.627,41.383c-6.352,12.994-15.844,24.553-18.173,39.406
	c-0.51,3.252-0.557,6.29,0.558,9.618c3.798,11.348,9.893,21.333,17.704,30.183c9.667,10.953,15.216,24.328,22.159,36.814
	c12.097,21.751,23.652,43.841,34.462,66.259c12.222,25.347,24.438,50.829,31.269,78.316c3.264,13.132,6.212,26.563,5.801,40.151
	c-0.465,15.401-2.178,30.747-11.64,43.982c-2.568,3.592-6.953,3.652-9.984,6.711c-7.3,7.358-16.362,12.127-26.846,13.686
	c-18.187,2.701-35.071-1.34-50.829-10.284c-22.104-12.547-35.121-33.113-47.638-54.229c-8.189-13.814-16.76-27.462-26.038-40.563
	c-13.608-19.219-22.205-41.163-34.406-61.114c-2.891-4.729-4.681-10.024-10.169-13.128c-7.962-4.502-13.404-4.036-17.835,3.875
	c-16.088,28.723-37.365,53.558-58.618,78.363c-16.595,19.366-33.263,38.765-51.254,56.8c-8.885,8.907-20.37,15.407-31.688,21.564
	c-7.642,4.159-16.007,4.888-24.191,6.524c-4.164,0.832-7.682-2.067-10.401-4.384c-15.678-13.354-25.146-30.431-26.39-51.048
	c-0.6-9.955,1.133-20.103,2.341-30.101c1.404-11.62,3.1-23.279,6.54-34.47c3.229-10.5,7.558-20.66,11.389-30.974
	c8.145-21.92,15.99-43.956,24.517-65.725c6.148-15.691,13.339-30.983,22.027-45.457c2.608-4.345,4.097-9.078,6.381-13.515
	c8.86-17.201,18.256-34.027,29.563-49.804c5.159-7.199,9.115-15.271,13.464-23.032c1.957-3.493-1.106-13.672-5.119-15.373
	c-2.172-0.922-3.351-2.157-3.863-3.887c-3.656-12.334-11.063-22.855-16.434-34.355c-8.626-18.47-17.557-36.796-26.412-55.157
	c-6.483-13.437-13.282-26.725-19.539-40.266c-12.94-27.999-24.68-56.492-34.816-85.646c-8.573-24.654-14.861-49.946-16.476-75.889
	c-1.217-19.554,1.114-39.372,13.412-56.009c5.894-7.972,15.312-9.354,24.585-10.958c17.848-3.088,31.977,4.301,44.607,15.335
	c17.181,15.009,28.46,34.557,40.092,53.837c18.523,30.708,31.638,64.307,51.12,94.515c9.25,14.343,17.518,29.326,26.021,44.139
	c10.835,18.871,17.996,39.378,26.185,59.431c2.605,6.382,4.738,13.117,10.123,18.021c5.263,4.794,12.034,4.356,15.678-1.656
	c6.863-11.327,11.422-23.812,17.283-35.645c9.822-19.826,20.681-39.104,31.789-58.233c7.189-12.378,14.063-24.98,21.944-36.909
	c8.418-12.739,17.402-25.092,31.481-32.705c10.457-5.654,28.479-3.829,37.491,3.87c7.572,6.472,12.964,14.644,18.993,22.281
	C1028.288,343.173,1027.43,350.126,1027.503,356.568z"/>
<path fill-rule="evenodd" clip-rule="evenodd" fill="#FECC00" stroke="#FECC00" stroke-width="2" stroke-miterlimit="10" d="
	M1667.803,899.055c-25.542,1.043-48.443,2.692-71.356,4.932c-11.25,1.099-22.672,2.378-34.15,2.104
	c-12.406-0.296-24.865,1.945-37.168,1.847c-15.883-0.129-31.466,1.934-47.074,3.574c-14.346,1.508-28.699,3.555-43.006,5.713
	c-11.332,1.711-22.568,4.373-34.152,4.737c-10.022,0.314-17.691-3.72-23.386-11.342c-3.499-4.685-7.876-8.671-10.056-14.595
	c-1.471-3.991,0.068-7.451-0.413-11.196c-1.646-12.814-2.956-25.907-1.46-38.756c1.717-14.749,0.719-29.434,1.041-44.141
	c0.285-13.064,1.021-26.233-0.205-39.189c-1.527-16.137,0.462-32.328-1.346-48.279c-1.633-14.408-0.628-28.803-1.884-43.209
	c-1.186-13.599-1.065-27.43-1.896-41.127c-1.428-23.574-3.466-47.111-5.15-70.67c-1.023-14.314-1.246-28.716-2.965-42.941
	c-1.698-14.054-2.596-28.185-4.543-42.231c-1.315-9.476-1.966-19.154-3.243-28.683c-2.25-16.776-3.938-33.616-7.292-50.267
	c-3.837-19.046-6.39-38.346-9.93-57.456c-2.235-12.064-5.168-24.001-7.945-35.959c-4.717-20.313-10.455-40.445-13.961-60.96
	c-1.677-9.814-5.048-19.796-2.083-30.437c3.063-10.992,9.836-18.537,19.651-22.311c17.829-6.856,36.686-8.882,55.787-10.157
	c19.138-1.276,38.217-0.773,57.307-0.755c18.733,0.017,37.38,1.833,55.926,4.946c12.404,2.083,25.18,2.056,37.518,4.4
	c13.251,2.517,26.277,6.276,39.041,10.928c16.778,6.117,31.708,15.082,43.008,28.835c7.988,9.723,10.438,21.086,9.179,34.433
	c-1.573,16.685-8.602,30.284-18.055,42.87c-10.37,13.804-25.711,20.288-42.071,24.511c-21.01,5.425-42.436,7.178-64.029,8.272
	c-11.588,0.588-23.304,1.209-34.615,4.585c-3.055,0.911-4.003,1.536-4.217,5.449c-0.932,17.11,2.074,33.898,3.066,50.833
	c0.613,10.463,1.323,20.95,2.722,31.327c1.393,10.323,2.587,20.678,6.059,30.711c2.578,7.445,8.495,7.822,13.816,7.278
	c18.79-1.92,37.539-4.31,56.445-4.57c12.879-0.177,25.571,1.896,38.321,3.682c19.613,2.748,36.654,10.386,51.414,23.455
	c12.129,10.739,16.401,23.483,13.688,39.899c-2.679,16.199-10.514,29.073-20.624,41.049c-10.032,11.882-23.617,17.409-38.522,20.425
	c-11.526,2.33-23.286,2.13-34.832,2.21c-14.502,0.101-29.029-2.344-43.531-3.83c-4.92-0.506-7.833-0.021-7.579,6.359
	c0.682,17.181,2.329,34.34,1.489,51.576c-1.148,23.542-1.815,47.102-5.166,70.501c-0.917,6.4-1.504,12.874-2.426,19.3
	c-1.09,7.601,10.108,18.169,17.782,16.813c14.225-2.515,28.32-6.276,42.646-7.569c18.353-1.654,36.733-3.931,55.283-3.062
	c9.99,0.47,20.038-0.312,30.028,0.153c11.082,0.515,22.112,2.194,33.195,2.668c16.54,0.707,32.77,3.586,48.936,6.641
	c15.643,2.957,30.785,7.639,44.125,17.02c6.914,4.861,13.995,9.137,19.094,16.338c6.206,8.765,9.076,18.451,10.632,28.759
	c1.969,13.054-3.963,23.544-10.626,34.03c-5.604,8.817-11.749,16.83-20.344,23.028c-3.911,2.819-8.277,4.522-12.389,6.747
	c-11.362,6.15-23.651,10.246-36.248,12.844c-11.18,2.307-22.187,5.372-33.478,7.3
	C1676.039,899.39,1670.644,898.429,1667.803,899.055z"/>
<path fill-rule="evenodd" clip-rule="evenodd" fill="#EC028B" stroke="#EC028B" stroke-width="5" stroke-miterlimit="10" d="
	M3431.631,691.583c19.921,0.313,35.854,1.187,50.954,7.698c26.584,11.466,44.471,40.063,37.182,71.422
	c-4.619,19.872-21.771,35.508-41.695,39.066c-20.642,3.686-41.459,7.015-60.814,15.859c-8.462,3.867-6.99,5.495-1.229,10.715
	c6.438,5.831,14.926,7.879,23.107,8.687c15.09,1.491,30.129,3.501,44.715,7.233c29.895,7.65,62.691,27.057,65.748,67.649
	c1.598,21.23-3.492,41.591-13.982,60.753c-27.719,50.626-70.384,79.269-126.67,89.207c-16.83,2.971-33.68,3.43-50.66,3.821
	c-19.936,0.461-39.785-0.322-59.458-3.152c-26.587-3.825-50.31-13.692-70.084-32.948c-16.688-16.25-24.378-36.359-27.886-58.261
	c-2.649-16.537,4.429-30.963,14.443-43.915c7.836-10.136,16.69-19.154,27.46-26.255c11.64-7.672,24.921-8.902,38.196-9.917
	c7.785-0.594,15.531-1.019,23.484,0c16.639,2.131,32.213,8.204,48.444,11.732c8.51,1.851,17.077,3.62,25.379,6.197
	c9.024,2.803,15.349-1.881,21.473-6.83c4.946-3.994,4.355-6.28-2.13-7.29c-8.445-1.313-16.97-2.23-25.541-2.847
	c-25.482-1.834-51.09-3.877-71.08-22.832c-20.299-19.248-30.183-43.285-31.493-70.938c-1.302-27.48,9.265-50.83,26.735-71.179
	c8.563-9.973,20.521-15.44,33.306-17.409c10.763-1.659,19.618-6.942,29.073-11.368
	C3382.954,695.09,3408.961,691.961,3431.631,691.583z"/>
<path fill-rule="evenodd" clip-rule="evenodd" fill="#78D54B" stroke="#78D54B" stroke-width="2" stroke-miterlimit="10" d="
	M475.555,951.141c-10.045-0.823-19.347-4.95-29.267-6.5c-8.694-1.36-17.229-3.746-25.835-5.679c0.859-0.772,1.492-1.481,0.543-2.728
	c-16.17-21.272-24.729-45.886-29.148-71.717c-2.558-14.961-4.821-30.109-4.764-45.588c0.041-11.586-1.461-23.384-0.435-34.889
	c0.694-7.771,1.654-15.909,1.31-23.354c-0.453-9.757,2.302-19.095,1.282-28.901c-0.832-7.995,1.773-16.343,2.812-24.541
	c0.712-5.618,1.915-11.246,1.914-16.87c-0.003-15.604,2.518-30.875,5.528-46.065c2.416-12.197,3.463-24.559,5.063-36.844
	c1.922-14.742,0.052-29.895,4.15-44.421c6.078-21.544,16.185-40.418,38.945-47.986c17.072-5.677,34.949-6.738,52.242-0.63
	c16.153,5.704,27.834,17.4,37.341,31.346c9.21,13.509,14.33,28.898,17.944,44.468c3.557,15.328,4.657,31.211,6.272,46.947
	c1.103,10.739,1.238,21.53,1.691,32.208c0.358,8.481,0.53,17.271-0.153,25.981c-0.508,6.492-0.077,13.482-0.882,19.97
	c-2.467,19.864-2.269,39.975-6.827,59.701c-2.271,9.825-3.374,20.12-4.979,30.199c-1.246,7.813-3.468,15.488-5.587,23.132
	c-1.833,6.615-4.21,13.076-6.212,19.647c-4.611,15.138-10.741,29.595-17.903,43.732c-7.007,13.832-14.393,27.299-24.438,39.181
	c-5.094,6.025-10.023,12.216-17.157,16.062C477.316,947.913,475.479,948.74,475.555,951.141z"/>
<path fill-rule="evenodd" clip-rule="evenodd" fill="#E83CAB" stroke="#E83CAB" stroke-width="2" stroke-miterlimit="10" d="
	M1240.489,659.817c2.022,18.147,1.967,37.234,1.607,56.319c-0.305,16.109,0.243,32.342-1.615,48.282
	c-1.796,15.402-3.775,30.83-7.077,46.155c-4.247,19.722-12.474,37.505-21.073,55.278c-3.271,6.764-8.394,12.305-16.15,15.121
	c-5.123,1.859-8.965,5.981-15.159,6.668c-16.293,1.805-26.46-7.123-35.482-18.404c-11.763-14.709-15.672-32.854-21.377-50.217
	c-4.18-12.719-2.399-26.065-4.675-38.979c-2.852-16.173-5.123-32.518-5.504-48.88c-0.294-12.7-2.002-25.526,0.648-38.289
	c0.932-4.494,0.188-9.327,0.295-14.003c0.342-15.013,0.641-30.055,0.806-45.039c0.159-14.449,1.405-28.93-0.329-43.572
	c-1.77-14.934,1.99-29.771,8.301-43.699c5.76-12.71,17.21-17.185,29.435-19.434c26.294-4.839,43.055,10.712,58.462,28.689
	c12.077,14.092,17.854,31.2,21.901,48.666c2.557,11.028,4.854,22.326,5.502,33.806
	C1239.392,645.172,1241.702,651.907,1240.489,659.817z"/>
<path fill-rule="evenodd" clip-rule="evenodd" fill="#78D54B" stroke="#78D54B" stroke-width="2" stroke-miterlimit="10" d="
	M488.777,503.255c-22.7-0.862-40.237-6.792-50.813-24.79c-6.544-11.137-10.713-23.495-5.414-36.625
	c1.957-4.854,1.547-9.923,2.279-14.813c3.081-20.625,18.603-29.358,32.696-32.511c6.562-1.468,13.206-3.177,19.867-3.459
	c14.452-0.614,30.288-1.202,41.309,8.514c10.799,9.519,19.086,22.51,16.477,39.08c-1.8,11.435-4.288,22.528-9.993,32.73
	c-5.517,9.86-12.963,17.65-22.991,23.092C503.913,498.965,495.832,503.714,488.777,503.255z"/>
<path fill-rule="evenodd" clip-rule="evenodd" fill="#E83CAB" stroke="#E83CAB" stroke-width="2" stroke-miterlimit="10" d="
	M1168.189,486.05c-18.45,0.561-29.231-9.788-38.495-20.958c-12.963-15.624-17.937-33.716-9.456-53.459
	c7.501-17.459,18.035-32.514,37.561-37.78c23.845-6.433,44.249-1.19,60.614,18.604c11.233,13.587,13.519,28.567,10.328,44.999
	c-3.23,16.628-12.498,29.615-25.415,40.212c-4.064,3.335-9.025,4.286-13.979,4.685
	C1181.552,482.977,1174.313,487.099,1168.189,486.05z"/>
<path fill-rule="evenodd" clip-rule="evenodd" fill="#FE671F" d="M3004.432,1045.482c-0.242-0.281-0.483-0.563-0.726-0.846
	c0.162-0.088,0.322-0.177,0.483-0.265c0.086,0.366,0.171,0.732,0.257,1.099L3004.432,1045.482z"/>
<g>
	<path fill-rule="evenodd" clip-rule="evenodd" fill="#ED1C24" stroke="#000000" stroke-width="2" stroke-miterlimit="10" d="
		M4671.495,1051.563c-14.462,1.971-28.954,1.849-43.453,1.688c-39.769-0.438-79.077-5.433-118.226-11.996
		c-33.412-5.604-66.294-13.838-99.474-20.406c-30.05-5.946-60.377-11.284-91.188-13.15c-38.185-2.314-75.619,1.302-112.737,10.19
		c-28.652,6.863-56.998,14.913-85.524,22.149c-23.79,6.036-47.974,11.212-72.671,13.579c-12.146,1.164-24.433,2.863-36.462,2.653
		c-27.474-0.476-54.922-2.937-81.926-8.525c-34.19-7.072-67.184-17.842-97.819-34.78c-35.696-19.736-66.141-45.551-91.683-77.699
		c-22.035-27.729-40.681-57.28-55.489-89.286c-16.699-36.091-29.312-73.449-34.736-113.121
		c-6.039-44.193-4.961-87.577,10.432-130.028c5.241-14.449,12.852-27.62,20.894-40.447c12.813-20.443,25.493-41.021,33.488-63.757
		c8.654-24.606,15.027-49.877,17.731-76.104c2.74-26.593,5.225-53.239,9.758-79.666c3.735-21.786,6.677-43.683,12.732-65.009
		c10.646-37.51,24.744-73.652,47.614-105.413c24.141-33.523,52.378-63.193,86.205-87.638c26.937-19.466,54.639-37.311,85.574-49.36
		c26.187-10.2,53.046-18.118,81.554-19.863c37.747-2.306,74.014,2.917,109.906,14.934c32.064,10.732,62.225,24.924,91.695,41.272
		c36.731,20.375,70.932,44.697,106.764,66.421c20.033,12.146,40.045,24.407,60.994,35.173
		c22.804,11.716,45.491,23.437,69.771,31.742c25.257,8.64,50.878,15.521,77.713,17.606c23.65,1.836,47.441,2.429,70.853,0.35
		c22.628-2.01,45.379-3.008,68.009-5.669c13.967-1.642,28.476-2.084,42.661-2.992c23.835-1.521,47.639-1.792,71.366-0.938
		c56.64,2.04,109.636,17.204,159.014,45.667c40.751,23.492,71.775,56.305,98.244,94.532c26.583,38.395,47.729,79.314,62.554,123.58
		c9.616,28.718,14.844,58.138,17.604,88.314c3.445,37.742-1.033,75.272-0.884,112.909c0.105,26.788-7.522,52.647-15.692,77.906
		c-6.045,18.692-19.024,33.437-34.201,45.811c-22.94,18.698-45.859,37.445-69.327,55.472
		c-24.655,18.942-49.873,37.153-74.983,55.496c-22.523,16.454-44.882,33.168-67.955,48.82c-24.234,16.443-48.915,32.15-75.435,45.01
		c-21.512,10.427-43.133,20.109-65.908,27.471C4730.345,1043.676,4701.069,1048.369,4671.495,1051.563z M5107.066,632.374
		c0.58-0.584,1.162-1.171,1.739-1.758c0.323-0.363,0.643-0.733,0.967-1.103c-0.219-0.119-0.432-0.24-0.648-0.361
		c-0.11,0.486-0.221,0.967-0.335,1.447c-0.586,0.581-1.169,1.159-1.756,1.74l-0.443,0.507L5107.066,632.374z M5084.251,658.456
		c-1.1,0.299-2.312,0.49-2.352,1.996c-0.002,0.188,0.386,0.562,0.569,0.549c1.508-0.104,1.614-1.358,1.911-2.44
		c0.359-0.382,0.717-0.764,1.072-1.146c-0.257-0.163-0.513-0.326-0.769-0.493C5084.537,657.434,5084.394,657.943,5084.251,658.456z
		 M5103.521,637.538c-3.857,0.811-6.303,3.03-6.992,7.004c-2.729,0.788-5.187,1.764-4.169,5.634
		c2.888-1.137,3.742-3.222,4.248-5.556c2.901-1.767,6.388-2.946,6.992-7.006c0.089-0.201,0.176-0.407,0.263-0.606
		C5103.75,637.185,5103.64,637.362,5103.521,637.538z M5103.58,548.62c1.335,0.031,1.73-0.895,2-1.951
		c6.164-11.016,4.746-23.063,4.671-34.911c-0.015-2.103-0.666-4.051-3.026-4.791c-4.466-21.093-15.358-39.396-25.465-57.996
		c-4.38-8.067-9.207-15.993-14.696-23.338c-10.709-14.332-23.172-27.118-35.866-39.758c-21.714-21.618-45.793-40.133-72.186-55.377
		c-17.934-10.357-37.855-15.539-58.2-20.387c-42.922-10.23-86.591-11.456-130.104-14.76c-51.087-3.879-100.787,5.459-150.386,16.572
		c-21.795,4.884-44.264,7.504-66.569,9.116c-22.165,1.601-44.458,1.043-66.759-0.827c-36.337-3.048-72.447-6.989-108.201-14.424
		c-28.797-5.985-57.201-13.227-84.201-24.87c-32.977-14.217-65.779-28.7-100.388-38.724
		c-36.658-10.617-74.161-16.351-112.064-18.271c-35.002-1.774-69.307,3.505-102.336,16.323
		c-21.207,8.229-41.768,17.556-61.863,28.235c-8.766,4.661-15.6,12.236-24.604,15.659c-5.912,2.249-10.785,5.019-15.062,9.325
		c-10.54,10.6-21.098,21.177-31.558,31.85c-14.525,14.82-29.055,29.967-40.023,47.446c-16.963,27.038-30.16,56.154-37.136,87.562
		c-3.687,16.591-7.563,33.519-3.92,50.561c3.861,18.053,3.286,36.216,3.435,54.41c0.036,4.265-0.494,8.604,0.104,12.786
		c3.575,25.035,9.395,49.599,19.067,72.96c12.22,29.517,30.222,55.37,52.442,78.363c26.389,27.307,60.096,43.305,93.125,60.146
		c30.51,15.562,62.482,27.308,96.121,34.758c24.864,5.508,50.003,7.451,75.201,8.615c17.047,0.787,34.217-1.45,51.32-1.302
		c23.503,0.21,46.513-4.591,69.892-5.854c23.507-1.268,46.804-6.027,70.301-8.03c18.978-1.617,37.383-6.196,56.121-8.979
		c20.528-3.05,41.061-5.791,61.756-6.849c17.061-0.869,34.098,0.735,50.974,3.232c19.887,2.94,39.628,6.942,59.564,9.483
		c14.277,1.819,28.725,1.716,43.197,1.712c16.213-0.002,32.583-0.166,48.546-1.46c19.115-1.545,38.327-3.721,57.458-5.936
		c31.676-3.668,63.321-6.491,94.681-13.479c35.794-7.977,68.808-21.807,101.095-38.355c11.854-6.077,22.38-14.103,33.433-21.344
		c29.351-19.21,62.846-31.317,90.714-52.987c15.906-12.367,32.627-23.656,47.934-36.818c11.445-9.839,19.797-22.339,29.848-33.352
		c14.733-16.134,21.401-36.388,30.123-55.646c1.232-2.716,2.13-5.366,1.638-8.358L5103.58,548.62z M5058.157,389.55
		c-0.114-0.482-0.228-0.966-0.338-1.448c-0.214,0.116-0.425,0.233-0.639,0.348c0.319,0.374,0.639,0.746,0.957,1.117
		c12.392,19.196,24.786,38.393,37.178,57.589c2.198-4.373,0.351-7.055-1.268-9.544c-6.447-9.918-12.712-20.002-19.888-29.377
		C5069.198,401.755,5066.634,393.05,5058.157,389.55z M4935.612,855.653c-10.555,4.214-21.524,7.298-31.489,13.073
		c-26.692,15.469-53.603,30.551-81.967,42.851c-20.912,9.063-42.139,17.316-63.892,24.123c-18.801,5.886-38.13,10.445-57.587,12.294
		c-20.913,1.994-42.102,4.2-63.243-1.069c-17.403-4.345-35.333-6.376-52.232-13.041c-11.663-4.599-23.703-8.337-36.499-9.193
		c0.787,1.494,1.772,2.503,2.963,3.108c24.231,12.333,49.789,21.653,75.728,29.116c40.607,11.689,81.66,9.214,122.529-0.829
		c41.762-10.258,81.269-26.149,119.061-46.366c25.633-13.711,49.476-29.977,68.323-52.609c0.558-0.824,1.118-1.647,1.673-2.473
		C4937.512,853.831,4936.363,854.089,4935.612,855.653z M4179.104,898.725c-10.081-1.757-19.677,0.618-29.36,1.639
		c-14.195,1.497-27.772,5.983-41.535,9.505c-19.615,5.021-39.621,8.374-59.238,13.201c-18.533,4.559-37.378,5.77-56.059,7.319
		c-15.332,1.269-31.067-1.574-46.563-3.168c-19.453-1.994-38.277-7.746-56.068-15.047c-17.782-7.297-34.828-17.099-49.765-29.794
		c-11.487-9.763-22.623-19.834-31.237-32.392c-2.383-3.481-4.522-10.767-8.674-8.278c-4.282,2.566,0.939,8.305,2.434,12.552
		c0.179,0.505,0.827,0.818,1.154,1.295c12.095,17.552,26.535,32.613,43.525,45.762c18.597,14.394,38.612,25.859,60.723,33.002
		c32.869,10.618,66.222,16.725,101.5,13.508c14.371-1.311,28.979-2.635,42.881-5.412c23.556-4.703,46.933-10.793,70.09-17.682
		C4143.029,918.751,4160.81,908.643,4179.104,898.725z M3744.224,642.196c-1.691-23.908-5.38-47.657-5.636-71.684
		C3736.886,594.699,3735.968,618.819,3744.224,642.196z M5077.489,666.653l0.052-0.475l-0.547,0.195L5077.489,666.653z"/>
	<path fill-rule="evenodd" clip-rule="evenodd" fill="#292929" stroke="#000000" stroke-width="2" stroke-miterlimit="10" d="
		M5103.727,548.6c0.492,2.992-0.405,5.643-1.638,8.358c-8.722,19.258-15.39,39.512-30.123,55.646
		c-10.051,11.013-18.402,23.513-29.848,33.352c-15.307,13.162-32.027,24.451-47.934,36.818
		c-27.868,21.67-61.363,33.777-90.714,52.987c-11.053,7.241-21.578,15.267-33.433,21.344
		c-32.287,16.549-65.301,30.379-101.095,38.355c-31.359,6.988-63.005,9.812-94.681,13.479c-19.131,2.215-38.343,4.391-57.458,5.936
		c-15.963,1.294-32.333,1.458-48.546,1.46c-14.473,0.004-28.92,0.107-43.197-1.712c-19.937-2.541-39.678-6.543-59.564-9.483
		c-16.876-2.497-33.913-4.102-50.974-3.232c-20.695,1.058-41.228,3.799-61.756,6.849c-18.738,2.782-37.144,7.361-56.121,8.979
		c-23.497,2.003-46.794,6.763-70.301,8.03c-23.379,1.263-46.389,6.063-69.892,5.854c-17.104-0.148-34.273,2.089-51.32,1.302
		c-25.198-1.164-50.337-3.107-75.201-8.615c-33.639-7.45-65.611-19.196-96.121-34.758c-33.029-16.841-66.736-32.839-93.125-60.146
		c-22.221-22.993-40.223-48.847-52.442-78.363c-9.673-23.361-15.492-47.925-19.067-72.96c-0.598-4.183-0.067-8.521-0.104-12.786
		c-0.148-18.194,0.427-36.357-3.435-54.41c-3.644-17.042,0.233-33.97,3.92-50.561c6.976-31.407,20.173-60.523,37.136-87.562
		c10.969-17.479,25.498-32.626,40.023-47.446c10.46-10.673,21.018-21.25,31.558-31.85c4.276-4.306,9.149-7.076,15.062-9.325
		c9.004-3.422,15.838-10.998,24.604-15.659c20.096-10.679,40.656-20.006,61.863-28.235c33.029-12.817,67.334-18.097,102.336-16.323
		c37.903,1.92,75.406,7.654,112.064,18.271c34.608,10.024,67.411,24.507,100.388,38.724c27,11.644,55.404,18.885,84.201,24.87
		c35.754,7.435,71.864,11.376,108.201,14.424c22.301,1.87,44.594,2.428,66.759,0.827c22.306-1.612,44.774-4.232,66.569-9.116
		c49.599-11.112,99.299-20.451,150.386-16.572c43.513,3.304,87.182,4.53,130.104,14.76c20.345,4.848,40.267,10.029,58.2,20.387
		c26.393,15.244,50.472,33.759,72.186,55.377c12.694,12.64,25.157,25.426,35.866,39.758c5.489,7.345,10.316,15.271,14.696,23.338
		c10.106,18.601,20.999,36.903,25.465,57.991c-0.148,1.712,0.446,3.609-1.188,4.973c-3.232-7.349-6.153-14.607-13.644-19.274
		c-40.211-25.047-84.174-26.995-129.535-22.305c-16.878,1.743-33.642,4.053-50.396,6.557c-13.889,2.074-27.817,3.939-41.621,6.479
		c-18.308,3.367-36.595,6.926-54.7,11.208c-5.743,1.356-13.162-0.632-16.969,6.218c-4.806,8.635-11.993,15.359-18.839,22.131
		c-20.331,20.115-44.212,35.408-68.71,49.996c-12.459,7.421-24.542,15.609-36.105,24.692
		c-12.964,10.186-24.392,22.057-37.533,31.972c-2.955,2.227-8.993,4.082-7.921,7.683c1.416,4.743,6.476,0.352,9.917,0.699
		c21.596,2.183,40.103,11.511,55.517,26.226c5.087,4.853,7.311,3.92,10.548-0.367c9.055-11.984,21.811-17.787,35.842-20.918
		c17.993-4.013,36.237-6.806,54.695-7.387c19.077-0.597,36.441,3.735,48.618,20.032c2.477,3.313,4.227,2.955,6.889,0.376
		c1.826-1.771,4.167-3.108,6.452-4.294c20.218-10.491,41.068-8.844,61.847-2.407c7.776,2.412,14.56,7.189,17.45,15.492
		c1.285,3.694,1.836,7.662,2.53,11.541c0.598,3.32,2.118,4.303,5.289,2.86c23.437-10.668,47.918-18.48,68.546-35.62
		c17.483-14.534,35.957-27.874,51.688-44.406c14.48-15.222,27.635-31.48,35.988-51.074
		C5102.496,548.228,5103.109,548.415,5103.727,548.6z M3837.324,702.191l-0.063-0.146c-2.821,4.21-2.197,8.434,0.773,12.04
		c12.498,15.164,24.995,30.649,42.544,40.175c29.847,16.203,60.72,30.421,92.604,42.132c22.321,8.202,45.192,14.513,68.897,18.148
		c27.644,4.245,55.26,6.784,83.231,6.555c23.01-0.184,45.894-1.874,68.83-3.299c15.862-0.985,31.613-2.906,47.436-4.133
		c25.235-1.953,50.453-3.969,75.552-7.996c18.948-3.043,38.081-5.342,56.981-8.784c19.783-3.602,39.863-5.86,59.657-4.742
		c27.705,1.569,55.321,5.783,82.806,9.977c25.67,3.912,51.454,3.858,77.103,2.64c17.16-0.815,34.51-3.477,51.604-4.128
		c32.408-1.229,64.136-6.543,95.986-11.34c35.207-5.301,68.401-17.106,100.225-32.936c31.546-15.693,58.13-39.005,88.088-57.123
		c2.06-1.246,2.291-2.75,2.898-4.743c2.612-8.586,1.11-15.156-5.037-22.535c-5.251-6.307-10.036-11.638-18.088-13.347
		c-5.313-1.129-10.68-2.772-16.028-2.805c-14.787-0.077-29.466-0.155-40.476,13.039c-8.075,9.679-8.724,9.13-16.607-0.632
		c-0.543-0.674-1.244-1.22-1.835-1.865c-14.138-15.406-32.965-15.406-51.375-14.318c-15.992,0.944-31.843,4.343-47.768,6.564
		c-12.07,1.684-26.616,17.951-26.416,29.956c0.229,13.579-0.157,27.082-3.818,40.458c-1.664-11.357-3.811-22.937-2.479-34.103
		c0.845-7.089-0.503-10.399-6.235-12.834c-3.358-1.427-5.555-4.101-8.053-6.488c-15.492-14.811-33.822-24.26-55.229-25.27
		c-17.283-0.815-34.747,0.013-52,1.579c-9.323,0.843-19.174,0.284-27.991,4.418c-6.151,2.886-13.03,5.889-8.907,15.06
		c1.407,3.142-0.396,6.068-1.689,8.173c-1.575,2.565-1.746,4.402-1.648,7.383c0.506,15.145,0.232,30.316,0.232,43.746
		c0.05,0.109-1.095-1.571-1.303-3.364c-1.802-15.701-3.808-31.401-4.791-47.163c-0.181-2.948-0.957-4.551-2.37-6.629
		c-8.791-12.917-20.644-21.433-35.706-25.652c-18.211-5.106-36.652-5.595-55.517-5.448c-22.724,0.174-44.52,2.852-65.206,12.32
		c-14.883,6.808-27.874,14.86-27.192,34.708c0.157,4.597-0.154,9.58-0.315,14.376c-0.21,5.981,1.819,12.664-2.743,18.744
		c-0.836-3.306-2.072-6.06-2.15-8.851c-0.474-16.442-6.256-30.592-17.793-42.31c-18.792-19.098-43.036-20.793-67.643-20.565
		c-14.111,0.131-28.217,1.307-42.324,2.015c1.112-1.764,2.937-2.516,4.601-3.631c21.32-14.298,40.204-30.691,51.589-54.681
		c7.244-15.271,11.588-31.7,9.241-47.444c-4.04-27.089-20.064-48.024-44.112-61.678c-36.853-20.928-77.511-30.022-118.821-36.786
		c-0.33-2.079,1.382-2.492,2.483-3.692c7.185-7.857,18.627-15.082,14.388-27.282c-5.469-15.744-0.666-33.28-9.797-48.108
		c-0.949-1.544-0.906-4.641,1.065-6.519c1.28-1.219,3.719-2.479,3.773,0.059c0.104,4.866,3.14,8.571,4.244,13.053
		c3.599,14.62-2.651,31.121,9.805,44.279c6.837,7.226,11.511,15.822,21.589,20.192c9.699,4.204,19.163,2.961,28.903,3.102
		c16.968,0.248,20.138-13.159,26.269-24.6c2.633-4.925,1.105-8.325,0.023-12.074c-3.804-13.152-4.271-17.062-1.467-24.301
		c0.451,0.291,1.264,0.551,1.285,0.866c1.198,18.046,9.892,33.542,17.09,49.478c6.55,14.505,17.164,24.509,33.794,26.273
		c16.145,1.709,30.791-2.941,45.586-9.223c17.275-7.328,22.428-20.889,24.672-37.602c1.185-8.802,0.01-18.405,6.531-26.079
		c1.046-1.233-0.046-4.232,3.187-3.847c2.779,0.331,3.438,2.145,4.172,4.64c2.341,7.935,1.903,16.027,1.552,24.024
		c-0.348,7.88,1.955,14.283,6.425,20.755c13.57,19.66,33.437,29.262,55.532,34.32c14.915,3.419,22.488-2.053,29.746-15.383
		c5.329-9.787,0.771-21.63,7.392-30.827c3.699,42.331,30.152,73.455,65.596,70.537c13.253-1.091,26.988-1.845,39.15-7.252
		c11.975-5.325,21.593-14.256,26.868-27.129c5.005-12.192,4.096-25.563,7.734-38.09c2.104,0.896,2.568,2.139,2.764,3.688
		c1.902,14.955,6.892,29.022,12.007,43.112c2.763,7.618,7.304,12.517,14.948,15.001c8.053,2.616,16.551,4.545,24.094,7.869
		c22.168,9.768,44.125,6.22,66.33,1.765c15.008-3.01,28.393-10.32,40.589-18.825c11.418-7.969,22.524-17.532,26.021-32.267
		c2.295-9.64,0.791-19.524,0.628-29.325c-0.142-8.256-1.439-16.821,2.709-26.014c1.95,4.307,4.879,7.604,4.439,10.362
		c-1.712,10.704,1.819,19.176,7.172,28.339c9.386,16.055,23.054,26.193,39.39,33.413c5.882,2.603,12.433,5.56,18.569,5.338
		c12.674-0.461,24.958-4.005,37.057-8.258c31.99-11.248,59.933-27.717,78.507-57.285c8.618-13.71,9.818-27.871,3.403-42.682
		c-3.99-9.22-12.364-13.989-20.529-18.161c-17.17-8.771-35.254-14.593-54.354-18.693c-17.046-3.66-34.116-7.305-51.323-9.529
		c-22.12-2.856-44.467-4.639-66.761-5.31c-27.222-0.818-54.571-1.587-81.669,1.872c-6.251,0.797-12.789,0.004-18.762,2.122
		c-12.011,4.264-24.625,6.186-36.893,9.316c-16.386,4.18-33.434,6.371-49.872,10.197c-16.813,3.914-33.796,6.577-50.632,7.172
		c-27.167,0.96-54.426,0.893-81.725-0.726c-28.104-1.666-55.564-6.517-83.174-10.991c-34.85-5.646-68.062-16.824-100.222-30.989
		c-18.322-8.067-36.562-16.324-55.199-23.622c-19.752-7.732-40.179-13.389-60.749-18.468c-21.423-5.288-43.11-9.312-65.134-10.584
		c-19.686-1.136-39.359-3.222-59.188-0.359c-14.902,2.151-29.854,3.621-44.296,8.221c-14.833,4.728-29.232,10.557-43.587,16.527
		c-27.96,11.629-53.904,26.919-76.764,46.639c-24.574,21.204-45.704,45.893-61.691,74.196c-7.225,12.786-15.809,25.166-13.99,42.419
		c2.184,20.725,4.426,41.026,12.701,60.296c-12.102,10.967-19.351,24.289-22.738,40.509c-3.456,16.528-2.479,32.836-1.597,49.342
		c1.409,26.381,10.651,50.521,22.224,73.631c8.873,17.72,19.036,34.815,27.326,52.866
		C3835.661,701.502,3836.28,701.99,3837.324,702.191z M4596.595,517.138c-13.301,2.319-26.57,1.828-39.94,3.244
		c-24.107,2.556-47.185,9.002-69.312,17.904c-39.745,15.987-78.662,34.03-118.149,50.683
		c-29.033,12.244-58.557,23.174-89.527,29.786c-7.569,1.616-14.85,4.684-22.153,7.376c-2.481,0.915-4.35,2.958-4.401,5.964
		c-0.039,1.988,0.828,3.391,2.954,3.555c2.025,0.155,4.066,0.098,6.096,0.204c30.295,1.604,57.921,8.249,72.997,38.629
		c0.646,1.297,1.508,2.715,3.191,2.504c2.05-0.259,1.742-2.036,1.552-3.405c-0.515-3.643,2.261-2.776,3.967-2.735
		c3.585,0.085,6.425-1.242,7.972-4.316c7.141-14.163,20.662-20.409,34.17-24.909c26.458-8.816,53.884-11.81,81.955-10.018
		c25.518,1.631,48.918,7.297,67.176,26.661c2.305,2.443,5.183,3.059,7.482,0.164c1.723-2.167,3.952-3.326,6.187-4.661
		c16.194-9.678,34.497-10.417,52.493-12.851c8.314-1.125,17.773,1.484,24.141-7.843c7.457-10.938,15.432-21.779,25.371-30.584
		c21.314-18.878,45.054-34.264,70.466-47.177c25.18-12.789,47.908-29.113,67.761-49.307c1.329-1.352,4.13-2.007,2.934-4.609
		c-1.203-2.609-3.392-0.675-5.247-0.695c-6.548-0.071-12.185,3.415-18.483,4.247c-15.431,2.04-30.837,4.274-46.265,6.345
		c-14.883,2.003-29.731,5.077-44.67,5.587C4650.432,517.789,4623.502,517.138,4596.595,517.138z"/>
	<path fill-rule="evenodd" clip-rule="evenodd" fill="#DB0E52" stroke="#000000" stroke-width="2" stroke-miterlimit="10" d="
		M4179.104,898.725c-18.294,9.918-36.074,20.026-56.192,26.01c-23.157,6.889-46.534,12.979-70.09,17.682
		c-13.902,2.777-28.51,4.102-42.881,5.412c-35.278,3.217-68.631-2.89-101.5-13.508c-22.11-7.143-42.126-18.608-60.723-33.002
		c-16.99-13.148-31.431-28.21-43.525-45.762c-0.327-0.477-0.976-0.79-1.154-1.295c-1.494-4.247-6.716-9.985-2.434-12.552
		c4.151-2.488,6.291,4.797,8.674,8.278c8.614,12.558,19.75,22.629,31.237,32.392c14.937,12.695,31.982,22.497,49.765,29.794
		c17.791,7.301,36.615,13.053,56.068,15.047c15.495,1.594,31.23,4.437,46.563,3.168c18.681-1.55,37.525-2.761,56.059-7.319
		c19.617-4.827,39.623-8.181,59.238-13.201c13.763-3.521,27.34-8.008,41.535-9.505
		C4159.427,899.343,4169.022,896.968,4179.104,898.725z"/>
	<path fill-rule="evenodd" clip-rule="evenodd" fill="#DB0E52" stroke="#000000" stroke-width="2" stroke-miterlimit="10" d="
		M4937.307,857.11c-18.848,22.633-42.69,38.898-68.323,52.609c-37.792,20.217-77.299,36.108-119.061,46.366
		c-40.869,10.043-81.922,12.519-122.529,0.829c-25.938-7.463-51.496-16.783-75.728-29.116c-1.19-0.605-2.176-1.614-2.963-3.108
		c12.796,0.856,24.836,4.595,36.499,9.193c16.899,6.665,34.829,8.696,52.232,13.041c21.142,5.27,42.33,3.063,63.243,1.069
		c19.457-1.849,38.786-6.408,57.587-12.294c21.753-6.807,42.979-15.06,63.892-24.123c28.364-12.3,55.274-27.382,81.967-42.851
		c9.965-5.775,20.935-8.859,31.489-13.073C4936.175,856.139,4936.74,856.627,4937.307,857.11z"/>
	<path fill-rule="evenodd" clip-rule="evenodd" fill="#DB0E52" stroke="#000000" stroke-width="2" stroke-miterlimit="10" d="
		M3744.224,642.196c-8.256-23.377-7.338-47.497-5.636-71.684C3738.844,594.539,3742.532,618.288,3744.224,642.196z"/>
	<path fill-rule="evenodd" clip-rule="evenodd" fill="#FEFEFE" stroke="#000000" stroke-width="2" stroke-miterlimit="10" d="
		M4935.612,855.653c0.751-1.564,1.899-1.822,3.367-1.016c-0.555,0.825-1.115,1.648-1.673,2.473
		C4936.74,856.627,4936.175,856.139,4935.612,855.653z"/>
	<path fill-rule="evenodd" clip-rule="evenodd" fill="#FEFEFE" stroke="#000000" stroke-width="2" stroke-miterlimit="10" d="
		M3810.876,483.975c-8.275-19.27-10.518-39.571-12.701-60.296c-1.818-17.253,6.766-29.633,13.99-42.419
		c15.987-28.304,37.117-52.992,61.691-74.196c22.859-19.719,48.804-35.01,76.764-46.639c14.354-5.97,28.754-11.8,43.587-16.527
		c14.442-4.6,29.394-6.07,44.296-8.221c19.828-2.863,39.502-0.776,59.188,0.359c22.023,1.272,43.711,5.297,65.134,10.584
		c20.57,5.08,40.997,10.736,60.749,18.468c18.638,7.298,36.877,15.554,55.199,23.622c32.16,14.166,65.372,25.344,100.222,30.989
		c27.609,4.475,55.069,9.325,83.174,10.991c27.299,1.618,54.558,1.686,81.725,0.726c16.836-0.595,33.819-3.258,50.632-7.172
		c16.438-3.826,33.486-6.018,49.872-10.197c12.268-3.131,24.882-5.053,36.893-9.316c5.973-2.117,12.511-1.325,18.762-2.122
		c27.098-3.459,54.447-2.69,81.669-1.872c22.294,0.671,44.641,2.454,66.761,5.31c17.207,2.225,34.277,5.869,51.323,9.529
		c19.1,4.101,37.184,9.923,54.354,18.693c8.165,4.172,16.539,8.941,20.529,18.161c6.415,14.811,5.215,28.972-3.403,42.682
		c-18.574,29.568-46.517,46.037-78.507,57.285c-12.099,4.253-24.383,7.797-37.057,8.258c-6.137,0.222-12.688-2.735-18.569-5.338
		c-16.336-7.22-30.004-17.358-39.39-33.413c-5.353-9.163-8.884-17.635-7.172-28.339c0.439-2.759-2.489-6.056-4.439-10.362
		c-4.148,9.192-2.851,17.758-2.709,26.014c0.163,9.801,1.667,19.686-0.628,29.325c-3.496,14.734-14.603,24.298-26.021,32.267
		c-12.196,8.505-25.581,15.815-40.589,18.825c-22.205,4.455-44.162,8.003-66.33-1.765c-7.543-3.324-16.041-5.253-24.094-7.869
		c-7.645-2.484-12.186-7.383-14.948-15.001c-5.115-14.09-10.104-28.157-12.007-43.112c-0.195-1.549-0.66-2.791-2.764-3.688
		c-3.639,12.526-2.729,25.897-7.734,38.09c-5.275,12.873-14.894,21.804-26.868,27.129c-12.162,5.407-25.897,6.161-39.15,7.252
		c-35.443,2.918-61.896-28.206-65.596-70.537c-6.621,9.197-2.063,21.04-7.392,30.827c-7.258,13.33-14.831,18.802-29.746,15.383
		c-22.096-5.059-41.962-14.66-55.532-34.32c-4.47-6.472-6.772-12.875-6.425-20.755c0.352-7.997,0.789-16.09-1.552-24.024
		c-0.733-2.495-1.393-4.309-4.172-4.64c-3.232-0.386-2.141,2.613-3.187,3.847c-6.521,7.674-5.347,17.277-6.531,26.079
		c-2.244,16.713-7.396,30.273-24.672,37.602c-14.795,6.281-29.441,10.932-45.586,9.223c-16.63-1.765-27.244-11.769-33.794-26.273
		c-7.198-15.936-15.892-31.432-17.09-49.478c-0.021-0.315-0.834-0.575-1.285-0.866c-2.804,7.239-2.337,11.148,1.467,24.301
		c1.082,3.749,2.609,7.149-0.023,12.074c-6.131,11.44-9.301,24.848-26.269,24.6c-9.74-0.141-19.204,1.103-28.903-3.102
		c-10.078-4.37-14.752-12.967-21.589-20.192c-12.456-13.158-6.206-29.659-9.805-44.279c-1.104-4.481-4.141-8.187-4.244-13.053
		c-0.055-2.537-2.493-1.277-3.773-0.059c-1.972,1.878-2.015,4.975-1.065,6.519c9.131,14.828,4.328,32.364,9.797,48.108
		c4.239,12.2-7.203,19.425-14.388,27.282c-1.102,1.2-2.813,1.613-2.483,3.692c-5.251,0.099-8.002,4.445-11.66,7.095
		c-24.923,18.078-56.64,23.396-74.338-11.882c-4.554-9.083-10.228,2.846-14.84-1.852c-1.243-1.269-2.863,1.496-3.572,2.904
		c-5.176,10.287-14.723,16.198-23.146,23.176c-4.015,3.33-8.732,4.954-14.253,5.509c-15.867,1.607-27.255-5.942-37.303-16.729
		c-8.625-9.261-15.205-8.895-22.287,1.937c-3.084,4.719-7.023,8.501-11.152,12.098c-13.906,12.114-28.533,22.771-48.45,21.265
		c-6.595-0.502-13.107-2.193-19.805-1.334c-2.218,0.286-3.808-0.875-5.209-2.528
		C3822.779,476.863,3822.765,476.874,3810.876,483.975z"/>
	<path fill-rule="evenodd" clip-rule="evenodd" fill="#FEFEFE" stroke="#000000" stroke-width="2" stroke-miterlimit="10" d="
		M4215.973,652.848c14.107-0.708,28.213-1.884,42.324-2.015c24.606-0.228,48.851,1.468,67.643,20.565
		c11.537,11.718,17.319,25.867,17.793,42.31c0.078,2.791,1.314,5.545,2.15,8.851c4.563-6.08,2.533-12.763,2.743-18.744
		c0.161-4.796,0.473-9.779,0.315-14.376c-0.682-19.848,12.31-27.9,27.192-34.708c20.687-9.469,42.482-12.146,65.206-12.32
		c18.864-0.146,37.306,0.342,55.517,5.448c15.063,4.22,26.915,12.735,35.706,25.652c1.413,2.078,2.189,3.681,2.37,6.629
		c0.983,15.762,2.989,31.462,4.791,47.163c0.208,1.793,1.353,3.474,1.303,3.364c0-13.43,0.273-28.602-0.232-43.746
		c-0.098-2.98,0.073-4.817,1.648-7.383c1.293-2.104,3.097-5.031,1.689-8.173c-4.123-9.171,2.756-12.174,8.907-15.06
		c8.817-4.134,18.668-3.575,27.991-4.418c17.253-1.566,34.717-2.395,52-1.579c21.407,1.01,39.737,10.459,55.229,25.27
		c2.498,2.388,4.694,5.062,8.053,6.488c5.732,2.435,7.08,5.745,6.235,12.834c-1.331,11.166,0.815,22.745,2.479,34.103
		c3.661-13.376,4.047-26.879,3.818-40.458c-0.2-12.005,14.346-28.272,26.416-29.956c15.925-2.222,31.775-5.62,47.768-6.564
		c18.41-1.088,37.237-1.088,51.375,14.318c0.591,0.646,1.292,1.191,1.835,1.865c7.884,9.762,8.532,10.311,16.607,0.632
		c11.01-13.194,25.688-13.116,40.476-13.039c5.349,0.032,10.715,1.676,16.028,2.805c8.052,1.709,12.837,7.04,18.088,13.347
		c6.147,7.379,7.649,13.949,5.037,22.535c-0.607,1.993-0.839,3.497-2.898,4.743c-29.958,18.118-56.542,41.43-88.088,57.123
		c-31.823,15.829-65.018,27.635-100.225,32.936c-31.851,4.797-63.578,10.111-95.986,11.34c-17.094,0.651-34.443,3.313-51.604,4.128
		c-25.648,1.219-51.433,1.272-77.103-2.64c-27.484-4.193-55.101-8.407-82.806-9.977c-19.794-1.118-39.874,1.141-59.657,4.742
		c-18.9,3.442-38.033,5.741-56.981,8.784c-25.099,4.027-50.316,6.043-75.552,7.996c-15.822,1.227-31.573,3.147-47.436,4.133
		c-22.937,1.425-45.82,3.115-68.83,3.299c-27.972,0.229-55.588-2.31-83.231-6.555c-23.705-3.636-46.576-9.946-68.897-18.148
		c-31.884-11.711-62.757-25.929-92.604-42.132c-17.549-9.525-30.046-25.011-42.544-40.175c-2.971-3.606-3.595-7.83-0.773-12.04
		c4.336,0.443,6.605,4.384,10.234,6.059c3.218,1.484,4.883,1.818,5.732-2.812c3.963-21.621,18.538-33.798,38.602-38.916
		c22.321-5.69,45.127-8.48,68.278-4.284c20.433,3.705,38.907,10.486,51.737,28.241c4.431,6.134,8.105,12.663,12.172,18.985
		c3.33,5.179,7.898,4.807,10.461-0.733c0.96-2.079,1.313-4.443,1.893-6.69c11.054-42.918,49.107-68.651,89.852-63.918
		c18.336,2.131,35.394,8.327,46.291,25.149c1.646,2.541,3.656,4.547,7.904,3.098
		C4192.415,662.126,4204.643,658.709,4215.973,652.848z M4176.266,708.091c-1.256,9.115,1.221,15.85,2.452,22.743
		C4179.882,723.682,4180.68,716.578,4176.266,708.091z"/>
	<path fill-rule="evenodd" clip-rule="evenodd" fill="#FEFC02" stroke="#000000" stroke-width="2" stroke-miterlimit="10" d="
		M4215.973,652.848c-11.33,5.861-23.558,9.278-35.556,13.376c-4.248,1.449-6.258-0.557-7.904-3.098
		c-10.897-16.822-27.955-23.019-46.291-25.149c-40.744-4.733-78.798,21-89.852,63.918c-0.579,2.247-0.933,4.611-1.893,6.69
		c-2.563,5.54-7.131,5.912-10.461,0.733c-4.066-6.322-7.741-12.852-12.172-18.985c-12.83-17.755-31.305-24.536-51.737-28.241
		c-23.151-4.196-45.957-1.406-68.278,4.284c-20.063,5.118-34.639,17.295-38.602,38.916c-0.85,4.63-2.515,4.296-5.732,2.812
		c-3.629-1.675-5.898-5.615-10.234-6.059l0.063,0.146c0.655-1.323-0.206-1.65-1.233-1.869c-8.29-18.051-18.453-35.146-27.326-52.866
		c-11.572-23.11-20.814-47.25-22.224-73.631c-0.883-16.506-1.859-32.813,1.597-49.342c3.388-16.22,10.637-29.542,22.738-40.509
		c11.889-7.101,11.903-7.111,21.579,4.312c1.401,1.653,2.991,2.814,5.209,2.528c6.697-0.859,13.21,0.832,19.805,1.334
		c19.917,1.507,34.544-9.15,48.45-21.265c4.129-3.597,8.068-7.379,11.152-12.098c7.082-10.831,13.662-11.197,22.287-1.937
		c10.048,10.786,21.436,18.336,37.303,16.729c5.521-0.555,10.238-2.179,14.253-5.509c8.423-6.978,17.97-12.889,23.146-23.176
		c0.709-1.408,2.329-4.173,3.572-2.904c4.612,4.697,10.286-7.231,14.84,1.852c17.698,35.278,49.415,29.96,74.338,11.882
		c3.658-2.649,6.409-6.996,11.66-7.095c41.311,6.764,81.969,15.858,118.821,36.786c24.048,13.653,40.072,34.589,44.112,61.678
		c2.347,15.744-1.997,32.174-9.241,47.444c-11.385,23.989-30.269,40.383-51.589,54.681
		C4218.909,650.332,4217.085,651.084,4215.973,652.848z M3942.487,516.511c-5.636,1.667-11.845,1.569-16.918,5.191
		c21.592-5.865,43.865-2.071,65.642-5.867c-3.649-0.291-7.301-0.582-10.95-0.874c-0.546-4.766-4.868-5.014-7.782-5.134
		c-16.581-0.681-33.515-4.126-46.847,4.056c3.212-0.445,8.837-1.228,14.461-2.013c2.975-0.416,6.117-1.092,5.663,3.715
		c-1.112,0.328-2.225,0.655-3.337,0.983L3942.487,516.511z M3822.001,507.31c-5.912,5.778-6.44,8.925-1.903,16.896
		c8.815,15.496,22.835,25.164,38.213,33.154c27.88,14.485,58.317,16.52,88.763,17.136c24.068,0.492,48.149,0.778,72.289-0.917
		c19.564-1.375,39.162-2.426,58.722-4.085c19.664-1.667,39.314-4.027,59.015-4.591c17.527-0.502,34.535-3.78,51.574-6.959
		c5.526-1.034,11.657-2.907,16.983-9.387c-4.893,0-8.271-0.272-11.589,0.042c-28.863,2.719-57.63,6.062-86.681,7.11
		c-32.601,1.176-65.091,5.736-97.685,6.587c-35.371,0.921-70.874,2.364-106.203-1.736c-21.601-2.512-42.021-9.052-60.035-21.264
		C3832.417,531.802,3820.337,524.022,3822.001,507.31z M3810.458,559.039c-5.694,7.649-5.188,16.321-2.566,24.103
		c7.145,21.206,18.931,40.171,31.059,58.894c-6.527-14.69-13.995-28.899-21.257-43.212
		C3811.354,586.339,3805.868,573.623,3810.458,559.039z M4252.025,554.497c-4.066,11.834-12.365,21.514-17.075,32.977
		C4249.327,569.501,4251.509,565.34,4252.025,554.497z M3951.963,499.964c7.943,3.419,25.957,1.3,33.565-4.036
		C3973.624,497.358,3963.589,498.565,3951.963,499.964z M3854.067,594.066c4.718,12.409,13.291,23.111,21.443,27.564
		C3869.852,611.867,3862.749,603.648,3854.067,594.066z M3829.445,590.927c4.882,11.958,10.415,23.679,21.224,34.716
		C3842.852,612.856,3836.148,601.892,3829.445,590.927z M4220.799,569.704c-7.834,3.464-15.796,6.618-22.529,14.84
		C4207.301,579.628,4214.8,575.749,4220.799,569.704z M4222.798,583.002c7.455-4.628,11.728-11.924,16.274-19.003
		C4233.04,569.813,4226.388,575.047,4222.798,583.002z M4219.151,588.743c0.554-0.856,1.128-1.739,1.699-2.623
		c-0.405-0.133-1.036-0.502-1.177-0.366c-0.733,0.711-1.341,1.549-1.992,2.342C4218.101,588.283,4218.521,588.467,4219.151,588.743z
		"/>
	<path fill-rule="evenodd" clip-rule="evenodd" fill="#780101" stroke="#000000" stroke-width="2" stroke-miterlimit="10" d="
		M5106.036,511.935c0.1,12.211,0.229,24.424-4.161,36.116c-8.35,19.586-21.504,35.845-35.984,51.066
		c-15.731,16.532-34.205,29.872-51.688,44.406c-20.628,17.14-45.109,24.952-68.546,35.62c-3.171,1.442-4.691,0.46-5.289-2.86
		c-0.694-3.879-1.245-7.847-2.53-11.541c-2.891-8.303-9.674-13.08-17.45-15.492c-20.778-6.437-41.629-8.084-61.847,2.407
		c-2.285,1.186-4.626,2.523-6.452,4.294c-2.662,2.579-4.412,2.937-6.889-0.376c-12.177-16.297-29.541-20.629-48.618-20.032
		c-18.458,0.581-36.702,3.374-54.695,7.387c-14.031,3.131-26.787,8.934-35.842,20.918c-3.237,4.287-5.461,5.22-10.548,0.367
		c-15.414-14.715-33.921-24.043-55.517-26.226c-3.441-0.348-8.501,4.044-9.917-0.699c-1.072-3.601,4.966-5.456,7.921-7.683
		c13.142-9.915,24.569-21.786,37.533-31.972c11.563-9.083,23.646-17.271,36.105-24.692c24.498-14.588,48.379-29.881,68.71-49.996
		c6.846-6.771,14.033-13.496,18.839-22.131c3.807-6.85,11.226-4.861,16.969-6.218c18.105-4.282,36.393-7.841,54.7-11.208
		c13.804-2.539,27.732-4.404,41.621-6.479c16.755-2.504,33.519-4.813,50.396-6.557c45.361-4.69,89.324-2.742,129.535,22.305
		C5099.883,497.327,5102.804,504.586,5106.036,511.935z"/>
	<path fill-rule="evenodd" clip-rule="evenodd" fill="#780101" stroke="#000000" stroke-width="2" stroke-miterlimit="10" d="
		M4596.595,517.138c26.907,0,53.837,0.651,80.715-0.258c14.938-0.51,29.787-3.584,44.67-5.587
		c15.428-2.07,30.834-4.305,46.265-6.345c6.299-0.832,11.936-4.318,18.483-4.247c1.855,0.021,4.044-1.914,5.247,0.695
		c1.196,2.603-1.604,3.258-2.934,4.609c-19.853,20.193-42.581,36.518-67.761,49.307c-25.412,12.913-49.151,28.299-70.466,47.177
		c-9.939,8.805-17.914,19.646-25.371,30.584c-6.367,9.327-15.826,6.718-24.141,7.843c-17.996,2.434-36.299,3.173-52.493,12.851
		c-2.234,1.335-4.464,2.494-6.187,4.661c-2.3,2.895-5.178,2.279-7.482-0.164c-18.258-19.364-41.658-25.03-67.176-26.661
		c-28.071-1.792-55.497,1.201-81.955,10.018c-13.508,4.5-27.029,10.746-34.17,24.909c-1.547,3.074-4.387,4.401-7.972,4.316
		c-1.706-0.041-4.481-0.907-3.967,2.735c0.19,1.369,0.498,3.146-1.552,3.405c-1.684,0.211-2.546-1.207-3.191-2.504
		c-15.076-30.38-42.702-37.025-72.997-38.629c-2.029-0.106-4.07-0.049-6.096-0.204c-2.126-0.164-2.993-1.566-2.954-3.555
		c0.052-3.006,1.92-5.049,4.401-5.964c7.304-2.692,14.584-5.76,22.153-7.376c30.971-6.612,60.494-17.542,89.527-29.786
		c39.487-16.652,78.404-34.695,118.149-50.683c22.127-8.902,45.204-15.349,69.312-17.904
		C4570.024,518.966,4583.294,519.457,4596.595,517.138z"/>
	<path fill-rule="evenodd" clip-rule="evenodd" fill="#ED1C24" stroke="#000000" stroke-width="2" stroke-miterlimit="10" d="
		M3836.091,700.322c1.027,0.219,1.889,0.546,1.233,1.869C3836.28,701.99,3835.661,701.502,3836.091,700.322z"/>
	<path fill-rule="evenodd" clip-rule="evenodd" fill="#FEFEFE" stroke="#000000" stroke-width="2" stroke-miterlimit="10" d="
		M4176.266,708.091c4.414,8.487,3.616,15.591,2.452,22.743C4177.486,723.94,4175.01,717.206,4176.266,708.091z"/>
	<path fill-rule="evenodd" clip-rule="evenodd" fill="#FECC00" stroke="#000000" stroke-width="2" stroke-miterlimit="10" d="
		M3822.001,507.31c-1.664,16.713,10.416,24.492,21.463,31.987c18.014,12.212,38.435,18.752,60.035,21.264
		c35.329,4.101,70.832,2.657,106.203,1.736c32.594-0.851,65.084-5.411,97.685-6.587c29.051-1.049,57.817-4.392,86.681-7.11
		c3.318-0.314,6.696-0.042,11.589-0.042c-5.326,6.479-11.457,8.353-16.983,9.387c-17.039,3.179-34.047,6.457-51.574,6.959
		c-19.7,0.563-39.351,2.924-59.015,4.591c-19.56,1.659-39.157,2.71-58.722,4.085c-24.14,1.695-48.221,1.409-72.289,0.917
		c-30.445-0.616-60.883-2.65-88.763-17.136c-15.378-7.99-29.397-17.658-38.213-33.154
		C3815.561,516.234,3816.089,513.088,3822.001,507.31z"/>
	<path fill-rule="evenodd" clip-rule="evenodd" fill="#FECC00" stroke="#000000" stroke-width="2" stroke-miterlimit="10" d="
		M3810.458,559.039c-4.59,14.584,0.896,27.3,7.235,39.784c7.262,14.313,14.729,28.521,21.257,43.212
		c-12.128-18.723-23.914-37.688-31.059-58.894C3805.271,575.36,3804.764,566.688,3810.458,559.039z"/>
	<path fill-rule="evenodd" clip-rule="evenodd" fill="#FECC00" stroke="#000000" stroke-width="2" stroke-miterlimit="10" d="
		M3945.756,515.585c0.454-4.807-2.688-4.131-5.663-3.715c-5.624,0.785-11.249,1.567-14.461,2.013
		c13.332-8.182,30.266-4.736,46.847-4.056c2.914,0.12,7.236,0.368,7.782,5.134"/>
	<path fill-rule="evenodd" clip-rule="evenodd" fill="#FECC00" stroke="#000000" stroke-width="2" stroke-miterlimit="10" d="
		M4252.025,554.497c-0.517,10.843-2.698,15.004-17.075,32.977C4239.66,576.011,4247.959,566.331,4252.025,554.497z"/>
	<path fill-rule="evenodd" clip-rule="evenodd" fill="#FECC00" stroke="#000000" stroke-width="2" stroke-miterlimit="10" d="
		M3951.963,499.964c11.626-1.398,21.661-2.605,33.565-4.036C3977.92,501.264,3959.906,503.383,3951.963,499.964z"/>
	<path fill-rule="evenodd" clip-rule="evenodd" fill="#FECC00" stroke="#000000" stroke-width="2" stroke-miterlimit="10" d="
		M3854.067,594.066c8.682,9.582,15.784,17.801,21.443,27.564C3867.358,617.178,3858.785,606.476,3854.067,594.066z"/>
	<path fill-rule="evenodd" clip-rule="evenodd" fill="#F7E7E2" stroke="#000000" stroke-width="2" stroke-miterlimit="10" d="
		M3829.445,590.927c6.703,10.965,13.406,21.93,21.224,34.716C3839.86,614.605,3834.327,602.885,3829.445,590.927z"/>
	<path fill-rule="evenodd" clip-rule="evenodd" fill="#FECC00" stroke="#000000" stroke-width="2" stroke-miterlimit="10" d="
		M4220.799,569.704c-5.999,6.045-13.498,9.924-22.529,14.84C4205.003,576.322,4212.965,573.168,4220.799,569.704z"/>
	<path fill-rule="evenodd" clip-rule="evenodd" fill="#FECC00" stroke="#000000" stroke-width="2" stroke-miterlimit="10" d="
		M4222.798,583.002c3.59-7.955,10.242-13.188,16.274-19.003C4234.525,571.078,4230.253,578.374,4222.798,583.002z"/>
	<path fill-rule="evenodd" clip-rule="evenodd" fill="#F7E7E2" stroke="#000000" stroke-width="2" stroke-miterlimit="10" d="
		M4219.151,588.743c-0.63-0.276-1.051-0.46-1.47-0.647c0.651-0.793,1.259-1.631,1.992-2.342c0.141-0.136,0.771,0.233,1.177,0.366
		C4220.279,587.004,4219.705,587.887,4219.151,588.743z"/>
	<path fill-rule="evenodd" clip-rule="evenodd" fill="#E83CAB" stroke="#000000" stroke-width="2" stroke-miterlimit="10" d="
		M3942.419,516.568c0,0,0.066-0.061,0.066-0.058C3942.487,516.511,3942.419,516.568,3942.419,516.568z"/>
	<path fill-rule="evenodd" clip-rule="evenodd" fill="#292929" stroke="#000000" stroke-width="2" stroke-miterlimit="10" d="
		M4028.309,437.593c-8.552-17.426-19.48-29.683-23.567-46.577c-1.057-4.371-7.78-2.518-6.724,1.852
		c4.098,16.932,12.937,30.902,18.063,47.453C4017.407,444.601,4030.294,441.644,4028.309,437.593z"/>
	<path fill-rule="evenodd" clip-rule="evenodd" fill="#292929" stroke="#000000" stroke-width="2" stroke-miterlimit="10" d="
		M3926.606,400.173c-7.88,15.083-4.254,30.939-3.967,47.174c0.079,4.489,7.052,4.5,6.973,0c-0.26-14.672-4.124-29.987,3.017-43.653
		C3945.336,379.366,3939.318,375.842,3926.606,400.173z"/>
	<path fill-rule="evenodd" clip-rule="evenodd" fill="#292929" stroke="#000000" stroke-width="2" stroke-miterlimit="10" d="
		M4043.17,758.356c-2.424-16.54-7.901-32.403-10.481-48.909c-0.693-4.43-7.412-2.545-6.724,1.853
		c2.579,16.506,8.06,32.369,10.48,48.908C4037.094,764.647,4043.813,762.754,4043.17,758.356z"/>
	<path fill-rule="evenodd" clip-rule="evenodd" fill="#292929" stroke="#000000" stroke-width="2" stroke-miterlimit="10" d="
		M4194.199,727.246c-9.7-19.737-5.739-42.275-7.676-63.452c-0.405-4.438-7.383-4.479-6.974,0
		c2.072,22.644-1.746,45.862,8.627,66.973C4190.165,734.799,4196.177,731.265,4194.199,727.246z"/>
	<path fill-rule="evenodd" clip-rule="evenodd" fill="#292929" stroke="#000000" stroke-width="2" stroke-miterlimit="10" d="
		M4042.478,769.607c-3.201-8.233-5.063-16.61-5.216-25.465c-0.06-3.469-5.43-3.475-5.392,0c0.109,9.313,1.939,18.247,5.266,26.938
		C4038.4,774.387,4043.773,772.937,4042.478,769.607z"/>
	<path fill-rule="evenodd" clip-rule="evenodd" fill="#292929" stroke="#000000" stroke-width="2" stroke-miterlimit="10" d="
		M4341.149,710.242c-3.259,9.962-5.248,19.914-5.397,30.408c-0.048,3.539,5.452,3.539,5.486,0
		c0.102-10.027,2.014-19.466,5.083-28.98C4347.39,708.366,4342.222,706.975,4341.149,710.242z"/>
</g>
</svg>
